<svg height='100px' width='100px'  fill="#FFFFFF" xmlns="http://www.w3.org/2000/svg" xmlns:xlink="http://www.w3.org/1999/xlink" xml:space="preserve" version="1.1" style="shape-rendering:geometricPrecision;text-rendering:geometricPrecision;image-rendering:optimizeQuality;" viewBox="0 0 846.66 846.66" x="0px" y="0px" fill-rule="evenodd" clip-rule="evenodd"><defs><style type="text/css">
   
    .fil0 {fill:#FFFFFF;fill-rule:nonzero}
   
  </style></defs><g><path class="fil0" d="M336.64 486.82c-20.55,-4.5 -170.29,-37.32 -226.83,-93.86 -46.77,-46.77 -57.35,-114.82 -7.98,-164.18 21.66,-21.66 123.7,-125.74 138.99,-137.43 56.94,-43.52 126.6,-16.68 166.62,35.64 47.48,62.1 79.22,210.37 79.31,210.79 1.49,6.89 -0.77,13.71 -5.4,18.35l-48.6 48.6 143.01 143 23.68 -23.69c7.81,-7.81 20.48,-7.81 28.29,0l126.9 126.91c69.15,69.15 -36.27,171.61 -103.94,103.94l-126.91 -126.9c-7.81,-7.81 -7.81,-20.48 0,-28.29l23.69 -23.68 -143 -143 -48.59 48.6c-5.21,5.21 -12.59,6.94 -19.24,5.2zm-83.57 -301.4c-18.62,-18.62 9.66,-46.9 28.28,-28.28l122.43 122.43c18.62,18.62 -9.66,46.91 -28.28,28.29l-122.43 -122.44zm-48.1 48.1c-18.62,-18.62 9.67,-46.9 28.29,-28.29l144.44 144.45c18.62,18.61 -9.66,46.9 -28.28,28.28l-144.45 -144.44zm-48.09 48.09c-18.62,-18.62 9.66,-46.9 28.28,-28.28l122.44 122.43c18.62,18.62 -9.67,46.9 -28.29,28.29l-122.43 -122.44zm409.33 332.24l112.76 112.76c31.51,31.51 78.18,-16.58 47.38,-47.38l-112.77 -112.76 -47.37 47.38zm-415.26 -237.87c45.8,35.01 150.83,61.68 184.44,69.56l109.89 -109.89c-8.98,-38.28 -37.22,-153.65 -80.86,-197.29 -31.33,-31.33 -74.18,-41.43 -107.62,-7.98l-133.99 134.92c-29.37,38.41 -6.55,84.14 28.14,110.68z"></path></g></svg>